<mxfile host="app.diagrams.net" modified="2023-11-22T11:05:13.083Z" agent="Mozilla/5.0 (Macintosh; Intel Mac OS X 10_15_7) AppleWebKit/537.36 (KHTML, like Gecko) Chrome/119.0.0.0 Safari/537.36" etag="ai0YK9lR3ifiI8NHMicE" version="22.1.3" type="device">
  <diagram name="Pagina-1" id="VhjvPveOKWFBHrCJJKAe">
    <mxGraphModel dx="2261" dy="2054" grid="1" gridSize="10" guides="1" tooltips="1" connect="1" arrows="1" fold="1" page="1" pageScale="1" pageWidth="827" pageHeight="1169" math="0" shadow="0">
      <root>
        <mxCell id="0" />
        <mxCell id="1" parent="0" />
        <mxCell id="7QWaegGgI7Q4pzlRcfMn-1" value="Postgres" style="shape=cylinder3;whiteSpace=wrap;html=1;boundedLbl=1;backgroundOutline=1;size=15;fillColor=#dae8fc;strokeColor=#6c8ebf;" vertex="1" parent="1">
          <mxGeometry x="-20" y="320" width="120" height="80" as="geometry" />
        </mxCell>
        <mxCell id="7QWaegGgI7Q4pzlRcfMn-2" value="MongoDB" style="shape=cylinder3;whiteSpace=wrap;html=1;boundedLbl=1;backgroundOutline=1;size=15;fillColor=#dae8fc;strokeColor=#6c8ebf;" vertex="1" parent="1">
          <mxGeometry x="560" y="320" width="120" height="80" as="geometry" />
        </mxCell>
        <mxCell id="7QWaegGgI7Q4pzlRcfMn-3" value="Master Application" style="shape=cube;whiteSpace=wrap;html=1;boundedLbl=1;backgroundOutline=1;darkOpacity=0.05;darkOpacity2=0.1;fillColor=#d5e8d4;strokeColor=#82b366;" vertex="1" parent="1">
          <mxGeometry x="-90" y="130" width="240" height="130" as="geometry" />
        </mxCell>
        <mxCell id="7QWaegGgI7Q4pzlRcfMn-4" value="Dependent Application" style="shape=cube;whiteSpace=wrap;html=1;boundedLbl=1;backgroundOutline=1;darkOpacity=0.05;darkOpacity2=0.1;fillColor=#d5e8d4;strokeColor=#82b366;" vertex="1" parent="1">
          <mxGeometry x="490" y="130" width="240" height="130" as="geometry" />
        </mxCell>
        <mxCell id="7QWaegGgI7Q4pzlRcfMn-5" value="Kafka" style="strokeWidth=1;html=1;shape=mxgraph.flowchart.direct_data;whiteSpace=wrap;fillColor=#f5f5f5;fontColor=#333333;strokeColor=#666666;" vertex="1" parent="1">
          <mxGeometry x="220" y="200" width="200" height="65" as="geometry" />
        </mxCell>
        <mxCell id="7QWaegGgI7Q4pzlRcfMn-7" style="edgeStyle=orthogonalEdgeStyle;rounded=0;orthogonalLoop=1;jettySize=auto;html=1;exitX=0;exitY=0;exitDx=130;exitDy=130;exitPerimeter=0;entryX=0.5;entryY=0;entryDx=0;entryDy=0;entryPerimeter=0;" edge="1" parent="1" source="7QWaegGgI7Q4pzlRcfMn-3" target="7QWaegGgI7Q4pzlRcfMn-1">
          <mxGeometry relative="1" as="geometry" />
        </mxCell>
        <mxCell id="7QWaegGgI7Q4pzlRcfMn-8" value="CRUD" style="edgeStyle=orthogonalEdgeStyle;rounded=0;orthogonalLoop=1;jettySize=auto;html=1;exitX=0.5;exitY=0;exitDx=0;exitDy=0;exitPerimeter=0;entryX=0;entryY=0;entryDx=130;entryDy=130;entryPerimeter=0;" edge="1" parent="1" source="7QWaegGgI7Q4pzlRcfMn-1" target="7QWaegGgI7Q4pzlRcfMn-3">
          <mxGeometry relative="1" as="geometry" />
        </mxCell>
        <mxCell id="7QWaegGgI7Q4pzlRcfMn-9" style="edgeStyle=orthogonalEdgeStyle;rounded=0;orthogonalLoop=1;jettySize=auto;html=1;exitX=0.5;exitY=0;exitDx=0;exitDy=0;exitPerimeter=0;entryX=0;entryY=0;entryDx=130;entryDy=130;entryPerimeter=0;" edge="1" parent="1" source="7QWaegGgI7Q4pzlRcfMn-2" target="7QWaegGgI7Q4pzlRcfMn-4">
          <mxGeometry relative="1" as="geometry" />
        </mxCell>
        <mxCell id="7QWaegGgI7Q4pzlRcfMn-10" value="CRUD" style="edgeStyle=orthogonalEdgeStyle;rounded=0;orthogonalLoop=1;jettySize=auto;html=1;exitX=0;exitY=0;exitDx=130;exitDy=130;exitPerimeter=0;entryX=0.5;entryY=0;entryDx=0;entryDy=0;entryPerimeter=0;" edge="1" parent="1" source="7QWaegGgI7Q4pzlRcfMn-4" target="7QWaegGgI7Q4pzlRcfMn-2">
          <mxGeometry relative="1" as="geometry" />
        </mxCell>
        <mxCell id="7QWaegGgI7Q4pzlRcfMn-12" value="Debezium Connector" style="sketch=0;outlineConnect=0;fontColor=#232F3E;gradientColor=none;fillColor=#232F3D;strokeColor=none;dashed=0;verticalLabelPosition=bottom;verticalAlign=top;align=center;html=1;fontSize=12;fontStyle=0;aspect=fixed;pointerEvents=1;shape=mxgraph.aws4.gear;" vertex="1" parent="1">
          <mxGeometry x="230" y="250" width="40" height="40" as="geometry" />
        </mxCell>
        <mxCell id="7QWaegGgI7Q4pzlRcfMn-13" value="Watch for changes" style="endArrow=classic;html=1;rounded=0;entryX=1;entryY=0.5;entryDx=0;entryDy=0;entryPerimeter=0;" edge="1" parent="1" source="7QWaegGgI7Q4pzlRcfMn-12" target="7QWaegGgI7Q4pzlRcfMn-1">
          <mxGeometry x="-0.0476" width="50" height="50" relative="1" as="geometry">
            <mxPoint x="210" y="280" as="sourcePoint" />
            <mxPoint x="440" y="440" as="targetPoint" />
            <Array as="points">
              <mxPoint x="140" y="270" />
              <mxPoint x="140" y="360" />
            </Array>
            <mxPoint as="offset" />
          </mxGeometry>
        </mxCell>
        <mxCell id="7QWaegGgI7Q4pzlRcfMn-15" value="Put changes on a topic" style="endArrow=classic;html=1;rounded=0;entryX=0.5;entryY=0;entryDx=0;entryDy=0;entryPerimeter=0;" edge="1" parent="1" source="7QWaegGgI7Q4pzlRcfMn-12" target="7QWaegGgI7Q4pzlRcfMn-5">
          <mxGeometry x="0.5714" width="50" height="50" relative="1" as="geometry">
            <mxPoint x="390" y="490" as="sourcePoint" />
            <mxPoint x="310" y="160" as="targetPoint" />
            <Array as="points">
              <mxPoint x="250" y="120" />
              <mxPoint x="320" y="120" />
            </Array>
            <mxPoint as="offset" />
          </mxGeometry>
        </mxCell>
        <mxCell id="7QWaegGgI7Q4pzlRcfMn-16" value="Consume &quot;change&quot; messages&lt;br&gt;to bring read model in sync" style="edgeStyle=orthogonalEdgeStyle;rounded=0;orthogonalLoop=1;jettySize=auto;html=1;exitX=0;exitY=0;exitDx=0;exitDy=55;exitPerimeter=0;entryX=0.695;entryY=0.985;entryDx=0;entryDy=0;entryPerimeter=0;" edge="1" parent="1" source="7QWaegGgI7Q4pzlRcfMn-4" target="7QWaegGgI7Q4pzlRcfMn-5">
          <mxGeometry x="-0.1277" y="-5" relative="1" as="geometry">
            <Array as="points">
              <mxPoint x="455" y="185" />
              <mxPoint x="455" y="320" />
              <mxPoint x="360" y="320" />
            </Array>
            <mxPoint as="offset" />
          </mxGeometry>
        </mxCell>
        <mxCell id="7QWaegGgI7Q4pzlRcfMn-18" value="INSERT" style="shape=flexArrow;endArrow=classic;html=1;rounded=0;" edge="1" parent="1">
          <mxGeometry x="-1" y="-22" width="50" height="50" relative="1" as="geometry">
            <mxPoint x="-20" y="60" as="sourcePoint" />
            <mxPoint x="-20" y="130" as="targetPoint" />
            <mxPoint x="2" y="-10" as="offset" />
          </mxGeometry>
        </mxCell>
        <mxCell id="7QWaegGgI7Q4pzlRcfMn-19" value="READ" style="shape=flexArrow;endArrow=classic;html=1;rounded=0;" edge="1" parent="1">
          <mxGeometry x="-1" y="-22" width="50" height="50" relative="1" as="geometry">
            <mxPoint x="90" y="60" as="sourcePoint" />
            <mxPoint x="90" y="130" as="targetPoint" />
            <mxPoint x="2" y="-10" as="offset" />
          </mxGeometry>
        </mxCell>
        <mxCell id="7QWaegGgI7Q4pzlRcfMn-20" value="READ" style="shape=flexArrow;endArrow=classic;html=1;rounded=0;" edge="1" parent="1">
          <mxGeometry x="-1" y="-22" width="50" height="50" relative="1" as="geometry">
            <mxPoint x="600" y="60" as="sourcePoint" />
            <mxPoint x="600" y="130" as="targetPoint" />
            <mxPoint x="2" y="-10" as="offset" />
          </mxGeometry>
        </mxCell>
        <mxCell id="7QWaegGgI7Q4pzlRcfMn-22" value="USER" style="shape=umlActor;verticalLabelPosition=bottom;verticalAlign=top;html=1;outlineConnect=0;" vertex="1" parent="1">
          <mxGeometry x="10" y="-40" width="30" height="60" as="geometry" />
        </mxCell>
        <mxCell id="7QWaegGgI7Q4pzlRcfMn-24" value="USER" style="shape=umlActor;verticalLabelPosition=bottom;verticalAlign=top;html=1;outlineConnect=0;" vertex="1" parent="1">
          <mxGeometry x="620" y="-40" width="30" height="60" as="geometry" />
        </mxCell>
        <mxCell id="7QWaegGgI7Q4pzlRcfMn-25" value="ADMIN" style="shape=umlActor;verticalLabelPosition=bottom;verticalAlign=top;html=1;outlineConnect=0;" vertex="1" parent="1">
          <mxGeometry x="330" y="620" width="30" height="60" as="geometry" />
        </mxCell>
        <mxCell id="7QWaegGgI7Q4pzlRcfMn-26" value="Reindex (serverless) Application" style="shape=cube;whiteSpace=wrap;html=1;boundedLbl=1;backgroundOutline=1;darkOpacity=0.05;darkOpacity2=0.1;fillColor=#d5e8d4;strokeColor=#82b366;" vertex="1" parent="1">
          <mxGeometry x="230" y="460" width="230" height="80" as="geometry" />
        </mxCell>
        <mxCell id="7QWaegGgI7Q4pzlRcfMn-29" value="TRIGGER" style="shape=flexArrow;endArrow=classic;html=1;rounded=0;" edge="1" parent="1">
          <mxGeometry x="-0.6764" y="-35" width="50" height="50" relative="1" as="geometry">
            <mxPoint x="345" y="610" as="sourcePoint" />
            <mxPoint x="344.5" y="550" as="targetPoint" />
            <mxPoint as="offset" />
          </mxGeometry>
        </mxCell>
        <mxCell id="7QWaegGgI7Q4pzlRcfMn-30" value="READ" style="edgeStyle=orthogonalEdgeStyle;rounded=0;orthogonalLoop=1;jettySize=auto;html=1;exitX=0;exitY=0;exitDx=0;exitDy=30;exitPerimeter=0;entryX=0.5;entryY=1;entryDx=0;entryDy=0;entryPerimeter=0;" edge="1" parent="1" source="7QWaegGgI7Q4pzlRcfMn-26" target="7QWaegGgI7Q4pzlRcfMn-1">
          <mxGeometry x="0.5" relative="1" as="geometry">
            <mxPoint as="offset" />
          </mxGeometry>
        </mxCell>
        <mxCell id="7QWaegGgI7Q4pzlRcfMn-31" value="PERSIST" style="edgeStyle=orthogonalEdgeStyle;rounded=0;orthogonalLoop=1;jettySize=auto;html=1;exitX=0;exitY=0;exitDx=230;exitDy=50;exitPerimeter=0;entryX=0.5;entryY=1;entryDx=0;entryDy=0;entryPerimeter=0;" edge="1" parent="1" source="7QWaegGgI7Q4pzlRcfMn-26" target="7QWaegGgI7Q4pzlRcfMn-2">
          <mxGeometry x="0.4074" relative="1" as="geometry">
            <mxPoint as="offset" />
          </mxGeometry>
        </mxCell>
      </root>
    </mxGraphModel>
  </diagram>
</mxfile>
